<svg width="138" height="138" viewBox="0 0 138 138" fill="none" xmlns="http://www.w3.org/2000/svg">
  <path fill-rule="evenodd" clip-rule="evenodd" d="M9.37259 9.37258C15.3958 3.34932 23.7783 1.19689 37.0075 0.427713C37.2327 6.85703 42.5158 12 49 12C55.6273 12 60.9998 6.62761 61 0.000359033C61.9831 0 62.983 0 64 0H74C104.17 0 119.255 0 128.627 9.37258C136.298 17.0431 137.691 28.5398 137.944 49.0001C126.924 49.0304 118 57.973 118 69C118 80.027 126.924 88.9697 137.944 88.9999C137.691 109.46 136.298 120.957 128.627 128.627C119.255 138 104.17 138 74 138H64C62.9257 138 61.8705 138 60.834 138C59.8817 132.324 54.9459 128 49 128C43.1995 128 38.3603 132.116 37.2429 137.586C23.8776 136.828 15.4315 134.686 9.37259 128.627C1.70202 120.957 0.309081 109.46 0.0561295 88.9999C11.076 88.9697 20 80.027 20 69C20 57.973 11.076 49.0304 0.0561295 49.0001C0.309081 28.5398 1.70202 17.0431 9.37259 9.37258ZM49 40C55.6274 40 61 34.6274 61 28C61 21.3726 55.6274 16 49 16C42.3726 16 37 21.3726 37 28C37 34.6274 42.3726 40 49 40ZM61 56C61 62.6274 55.6274 68 49 68C42.3726 68 37 62.6274 37 56C37 49.3726 42.3726 44 49 44C55.6274 44 61 49.3726 61 56ZM49 124C55.6274 124 61 118.627 61 112C61 105.373 55.6274 100 49 100C42.3726 100 37 105.373 37 112C37 118.627 42.3726 124 49 124ZM61 84C61 90.6274 55.6274 96 49 96C42.3726 96 37 90.6274 37 84C37 77.3726 42.3726 72 49 72C55.6274 72 61 77.3726 61 84Z" fill="#A8FD86"/>
  <path fill-rule="evenodd" clip-rule="evenodd" d="M37.0075 0.427713C23.7783 1.19689 15.3958 3.34932 9.37259 9.37258C1.70202 17.0431 0.309081 28.5398 0.0561295 49.0001C11.076 49.0304 20 57.973 20 69C20 80.027 11.076 88.9697 0.0561295 88.9999C0.309081 109.46 1.70202 120.957 9.37259 128.627C15.4315 134.686 23.8776 136.828 37.2429 137.586C38.3603 132.116 43.1995 128 49 128C54.9459 128 59.8817 132.324 60.834 138C61.8705 138 62.9257 138 64 138H74C83.3581 138 91.2649 138 98 137.72V0.279707C91.2649 0 83.3581 0 74 0H64C62.983 0 61.9831 0 61 0.000359033C60.9998 6.62761 55.6273 12 49 12C42.5158 12 37.2327 6.85703 37.0075 0.427713ZM61 28C61 34.6274 55.6274 40 49 40C42.3726 40 37 34.6274 37 28C37 21.3726 42.3726 16 49 16C55.6274 16 61 21.3726 61 28ZM49 68C55.6274 68 61 62.6274 61 56C61 49.3726 55.6274 44 49 44C42.3726 44 37 49.3726 37 56C37 62.6274 42.3726 68 49 68ZM61 112C61 118.627 55.6274 124 49 124C42.3726 124 37 118.627 37 112C37 105.373 42.3726 100 49 100C55.6274 100 61 105.373 61 112ZM49 96C55.6274 96 61 90.6274 61 84C61 77.3726 55.6274 72 49 72C42.3726 72 37 77.3726 37 84C37 90.6274 42.3726 96 49 96Z" fill="#FAFAFA"/>
</svg>
