<svg width="801" height="154" viewBox="0 0 801 154" fill="none" xmlns="http://www.w3.org/2000/svg">
<path fill-rule="evenodd" clip-rule="evenodd" d="M7.56118 28.6067C12.4496 23.7183 19.2528 21.9714 29.9895 21.3471C30.1723 26.5651 34.46 30.7391 39.7226 30.7391C45.1012 30.7391 49.4615 26.3789 49.4617 21.0003C50.2596 21 51.0711 21 51.8965 21H60.0124C84.4981 21 96.741 21 104.348 28.6067C110.573 34.8321 111.704 44.1627 111.909 60.7682C102.965 60.7927 95.7226 68.0506 95.7226 77C95.7226 85.9494 102.965 93.2073 111.909 93.2318C111.704 109.837 110.573 119.168 104.348 125.393C96.741 133 84.4981 133 60.0124 133H51.8965C51.0246 133 50.1682 133 49.327 133C48.5541 128.394 44.5482 124.884 39.7226 124.884C35.0149 124.884 31.0874 128.224 30.1806 132.664C19.3334 132.049 12.4786 130.311 7.56118 125.393C1.3358 119.168 0.205294 109.837 0 93.2318C8.94367 93.2073 16.1863 85.9494 16.1863 77C16.1863 68.0506 8.94367 60.7927 1.81405e-08 60.7682C0.205294 44.1627 1.3358 34.8321 7.56118 28.6067ZM39.7226 53.4638C45.1013 53.4638 49.4617 49.1034 49.4617 43.7246C49.4617 38.3459 45.1013 33.9855 39.7226 33.9855C34.3438 33.9855 29.9834 38.3459 29.9834 43.7246C29.9834 49.1034 34.3438 53.4638 39.7226 53.4638ZM49.4617 66.4493C49.4617 71.828 45.1013 76.1884 39.7226 76.1884C34.3438 76.1884 29.9834 71.828 29.9834 66.4493C29.9834 61.0705 34.3438 56.7101 39.7226 56.7101C45.1013 56.7101 49.4617 61.0705 49.4617 66.4493ZM39.7226 121.638C45.1013 121.638 49.4617 117.277 49.4617 111.899C49.4617 106.52 45.1013 102.159 39.7226 102.159C34.3438 102.159 29.9834 106.52 29.9834 111.899C29.9834 117.277 34.3438 121.638 39.7226 121.638ZM49.4617 89.1739C49.4617 94.5527 45.1013 98.913 39.7226 98.913C34.3438 98.913 29.9834 94.5527 29.9834 89.1739C29.9834 83.7951 34.3438 79.4348 39.7226 79.4348C45.1013 79.4348 49.4617 83.7951 49.4617 89.1739Z" fill="#A8FD86"/>
<path fill-rule="evenodd" clip-rule="evenodd" d="M29.9895 21.3471C19.2528 21.9714 12.4496 23.7183 7.56118 28.6067C1.3358 34.8321 0.205294 44.1627 1.81405e-08 60.7682C8.94367 60.7927 16.1863 68.0506 16.1863 77C16.1863 85.9494 8.94367 93.2073 0 93.2318C0.205294 109.837 1.3358 119.168 7.56118 125.393C12.4786 130.311 19.3334 132.049 30.1806 132.664C31.0874 128.224 35.0149 124.884 39.7226 124.884C44.5482 124.884 48.5541 128.394 49.327 133C50.1682 133 51.0246 133 51.8965 133H60.0124C67.6074 133 74.0245 133 79.4907 132.773V21.227C74.0245 21 67.6074 21 60.0124 21H51.8965C51.0711 21 50.2596 21 49.4617 21.0003C49.4615 26.3789 45.1012 30.7391 39.7226 30.7391C34.46 30.7391 30.1723 26.5651 29.9895 21.3471ZM49.4617 43.7246C49.4617 49.1034 45.1013 53.4638 39.7226 53.4638C34.3438 53.4638 29.9834 49.1034 29.9834 43.7246C29.9834 38.3459 34.3438 33.9855 39.7226 33.9855C45.1013 33.9855 49.4617 38.3459 49.4617 43.7246ZM39.7226 76.1884C45.1013 76.1884 49.4617 71.828 49.4617 66.4493C49.4617 61.0705 45.1013 56.7101 39.7226 56.7101C34.3438 56.7101 29.9834 61.0705 29.9834 66.4493C29.9834 71.828 34.3438 76.1884 39.7226 76.1884ZM49.4617 111.899C49.4617 117.277 45.1013 121.638 39.7226 121.638C34.3438 121.638 29.9834 117.277 29.9834 111.899C29.9834 106.52 34.3438 102.159 39.7226 102.159C45.1013 102.159 49.4617 106.52 49.4617 111.899ZM39.7226 98.913C45.1013 98.913 49.4617 94.5527 49.4617 89.1739C49.4617 83.7951 45.1013 79.4348 39.7226 79.4348C34.3438 79.4348 29.9834 83.7951 29.9834 89.1739C29.9834 94.5527 34.3438 98.913 39.7226 98.913Z" fill="#FAFAFA"/>
<path d="M218.469 34.456V48.6H190.629V127H173.413V48.6H145.445V34.456H218.469ZM241.474 61.336V127H225.666V61.336H241.474ZM243.842 42.2C243.842 43.5653 243.565 44.8453 243.01 46.04C242.455 47.2347 241.709 48.28 240.77 49.176C239.874 50.072 238.807 50.7973 237.57 51.352C236.333 51.864 235.01 52.12 233.602 52.12C232.237 52.12 230.935 51.864 229.698 51.352C228.503 50.7973 227.458 50.072 226.562 49.176C225.666 48.28 224.941 47.2347 224.386 46.04C223.874 44.8453 223.618 43.5653 223.618 42.2C223.618 40.792 223.874 39.4693 224.386 38.232C224.941 36.9947 225.666 35.928 226.562 35.032C227.458 34.136 228.503 33.432 229.698 32.92C230.935 32.3653 232.237 32.088 233.602 32.088C235.01 32.088 236.333 32.3653 237.57 32.92C238.807 33.432 239.874 34.136 240.77 35.032C241.709 35.928 242.455 36.9947 243.01 38.232C243.565 39.4693 243.842 40.792 243.842 42.2ZM301.696 75.224C301.227 75.8213 300.757 76.2907 300.288 76.632C299.861 76.9733 299.221 77.144 298.368 77.144C297.557 77.144 296.768 76.9093 296 76.44C295.232 75.928 294.315 75.3733 293.248 74.776C292.181 74.136 290.901 73.5813 289.408 73.112C287.957 72.6 286.144 72.344 283.968 72.344C281.195 72.344 278.763 72.856 276.672 73.88C274.581 74.8613 272.832 76.2907 271.424 78.168C270.059 80.0453 269.035 82.328 268.352 85.016C267.669 87.6613 267.328 90.6693 267.328 94.04C267.328 97.5387 267.691 100.653 268.416 103.384C269.184 106.115 270.272 108.419 271.68 110.296C273.088 112.131 274.795 113.539 276.8 114.52C278.805 115.459 281.067 115.928 283.584 115.928C286.101 115.928 288.128 115.629 289.664 115.032C291.243 114.392 292.565 113.709 293.632 112.984C294.699 112.216 295.616 111.533 296.384 110.936C297.195 110.296 298.091 109.976 299.072 109.976C300.352 109.976 301.312 110.467 301.952 111.448L306.496 117.208C304.747 119.256 302.848 120.984 300.8 122.392C298.752 123.757 296.619 124.867 294.4 125.72C292.224 126.531 289.963 127.107 287.616 127.448C285.269 127.789 282.944 127.96 280.64 127.96C276.587 127.96 272.768 127.213 269.184 125.72C265.6 124.184 262.464 121.965 259.776 119.064C257.131 116.163 255.019 112.621 253.44 108.44C251.904 104.216 251.136 99.416 251.136 94.04C251.136 89.2187 251.819 84.76 253.184 80.664C254.592 76.5253 256.64 72.9627 259.328 69.976C262.016 66.9467 265.344 64.5787 269.312 62.872C273.28 61.1653 277.845 60.312 283.008 60.312C287.915 60.312 292.203 61.1013 295.872 62.68C299.584 64.2587 302.912 66.52 305.856 69.464L301.696 75.224ZM328.712 31.896V86.36H331.656C332.723 86.36 333.555 86.2107 334.152 85.912C334.749 85.6133 335.389 85.0587 336.072 84.248L352.392 64.088C353.117 63.2347 353.885 62.5733 354.696 62.104C355.507 61.592 356.573 61.336 357.896 61.336H372.36L351.944 85.72C351.219 86.616 350.472 87.448 349.704 88.216C348.936 88.9413 348.104 89.5813 347.208 90.136C348.104 90.776 348.893 91.5227 349.576 92.376C350.259 93.2293 350.941 94.1467 351.624 95.128L373.512 127H359.24C358.003 127 356.957 126.787 356.104 126.36C355.251 125.933 354.483 125.208 353.8 124.184L337.096 99.288C336.456 98.3067 335.816 97.6667 335.176 97.368C334.536 97.0693 333.576 96.92 332.296 96.92H328.712V127H312.904V31.896H328.712ZM402.758 60.312C406.897 60.312 410.694 60.9733 414.15 62.296C417.649 63.6187 420.657 65.56 423.174 68.12C425.691 70.6373 427.654 73.752 429.062 77.464C430.47 81.1333 431.174 85.336 431.174 90.072C431.174 91.2667 431.11 92.2693 430.982 93.08C430.897 93.848 430.705 94.4667 430.406 94.936C430.15 95.3627 429.787 95.6827 429.318 95.896C428.849 96.0667 428.251 96.152 427.526 96.152H386.95C387.419 102.893 389.233 107.843 392.39 111C395.547 114.157 399.729 115.736 404.934 115.736C407.494 115.736 409.691 115.437 411.526 114.84C413.403 114.243 415.025 113.581 416.39 112.856C417.798 112.131 419.014 111.469 420.038 110.872C421.105 110.275 422.129 109.976 423.11 109.976C423.75 109.976 424.305 110.104 424.774 110.36C425.243 110.616 425.649 110.979 425.99 111.448L430.598 117.208C428.849 119.256 426.886 120.984 424.71 122.392C422.534 123.757 420.251 124.867 417.862 125.72C415.515 126.531 413.105 127.107 410.63 127.448C408.198 127.789 405.83 127.96 403.526 127.96C398.961 127.96 394.715 127.213 390.79 125.72C386.865 124.184 383.451 121.944 380.55 119C377.649 116.013 375.366 112.344 373.702 107.992C372.038 103.597 371.206 98.52 371.206 92.76C371.206 88.28 371.931 84.0773 373.382 80.152C374.833 76.184 376.902 72.7493 379.59 69.848C382.321 66.904 385.627 64.5787 389.51 62.872C393.435 61.1653 397.851 60.312 402.758 60.312ZM403.078 71.64C398.47 71.64 394.865 72.9413 392.262 75.544C389.659 78.1467 387.995 81.8373 387.27 86.616H416.966C416.966 84.568 416.689 82.648 416.134 80.856C415.579 79.0213 414.726 77.4213 413.574 76.056C412.422 74.6907 410.971 73.624 409.222 72.856C407.473 72.0453 405.425 71.64 403.078 71.64ZM461.725 128.024C456.05 128.024 451.677 126.424 448.605 123.224C445.533 119.981 443.997 115.523 443.997 109.848V73.176H437.341C436.488 73.176 435.741 72.8987 435.101 72.344C434.504 71.7893 434.205 70.9573 434.205 69.848V63.576L444.765 61.848L448.093 43.928C448.264 43.0747 448.648 42.4133 449.245 41.944C449.885 41.4747 450.674 41.24 451.613 41.24H459.805V61.912H477.085V73.176H459.805V108.76C459.805 110.808 460.317 112.408 461.341 113.56C462.365 114.712 463.73 115.288 465.437 115.288C466.418 115.288 467.229 115.181 467.869 114.968C468.552 114.712 469.128 114.456 469.597 114.2C470.109 113.944 470.557 113.709 470.941 113.496C471.325 113.24 471.709 113.112 472.093 113.112C472.562 113.112 472.946 113.24 473.245 113.496C473.544 113.709 473.864 114.051 474.205 114.52L478.941 122.2C476.637 124.12 473.992 125.571 471.005 126.552C468.018 127.533 464.925 128.024 461.725 128.024ZM486.009 127V31.896H501.817V69.4C504.42 66.6267 507.364 64.4293 510.649 62.808C513.934 61.144 517.774 60.312 522.169 60.312C525.753 60.312 529.017 61.0587 531.961 62.552C534.948 64.0027 537.508 66.136 539.641 68.952C541.817 71.768 543.481 75.2453 544.633 79.384C545.828 83.5227 546.425 88.28 546.425 93.656C546.425 98.5627 545.764 103.107 544.441 107.288C543.118 111.469 541.22 115.096 538.745 118.168C536.313 121.24 533.348 123.651 529.849 125.4C526.393 127.107 522.51 127.96 518.201 127.96C516.196 127.96 514.361 127.747 512.697 127.32C511.033 126.936 509.518 126.381 508.153 125.656C506.788 124.931 505.508 124.056 504.313 123.032C503.161 121.965 502.052 120.792 500.985 119.512L500.281 123.928C500.025 125.037 499.577 125.827 498.937 126.296C498.34 126.765 497.508 127 496.441 127H486.009ZM516.729 72.6C513.444 72.6 510.628 73.304 508.281 74.712C505.977 76.0773 503.822 78.0187 501.817 80.536V109.976C503.609 112.195 505.55 113.752 507.641 114.648C509.774 115.501 512.078 115.928 514.553 115.928C516.942 115.928 519.097 115.48 521.017 114.584C522.937 113.688 524.558 112.323 525.881 110.488C527.246 108.653 528.292 106.349 529.017 103.576C529.742 100.76 530.105 97.4533 530.105 93.656C530.105 89.816 529.785 86.5733 529.145 83.928C528.548 81.24 527.673 79.064 526.521 77.4C525.369 75.736 523.961 74.52 522.297 73.752C520.676 72.984 518.82 72.6 516.729 72.6ZM583.009 60.312C587.916 60.312 592.353 61.1013 596.321 62.68C600.332 64.2587 603.745 66.4987 606.561 69.4C609.377 72.3013 611.553 75.8427 613.089 80.024C614.625 84.2053 615.393 88.8773 615.393 94.04C615.393 99.2453 614.625 103.939 613.089 108.12C611.553 112.301 609.377 115.864 606.561 118.808C603.745 121.752 600.332 124.013 596.321 125.592C592.353 127.171 587.916 127.96 583.009 127.96C578.102 127.96 573.644 127.171 569.633 125.592C565.622 124.013 562.188 121.752 559.329 118.808C556.513 115.864 554.316 112.301 552.737 108.12C551.201 103.939 550.433 99.2453 550.433 94.04C550.433 88.8773 551.201 84.2053 552.737 80.024C554.316 75.8427 556.513 72.3013 559.329 69.4C562.188 66.4987 565.622 64.2587 569.633 62.68C573.644 61.1013 578.102 60.312 583.009 60.312ZM583.009 115.8C588.47 115.8 592.502 113.965 595.105 110.296C597.75 106.627 599.073 101.251 599.073 94.168C599.073 87.0853 597.75 81.688 595.105 77.976C592.502 74.264 588.47 72.408 583.009 72.408C577.462 72.408 573.366 74.2853 570.721 78.04C568.076 81.752 566.753 87.128 566.753 94.168C566.753 101.208 568.076 106.584 570.721 110.296C573.366 113.965 577.462 115.8 583.009 115.8ZM675.343 127H668.239C666.746 127 665.572 126.787 664.719 126.36C663.866 125.891 663.226 124.973 662.799 123.608L661.391 118.936C659.727 120.429 658.084 121.752 656.463 122.904C654.884 124.013 653.242 124.952 651.535 125.72C649.828 126.488 648.015 127.064 646.095 127.448C644.175 127.832 642.042 128.024 639.695 128.024C636.922 128.024 634.362 127.661 632.015 126.936C629.668 126.168 627.642 125.037 625.935 123.544C624.271 122.051 622.97 120.195 622.031 117.976C621.092 115.757 620.623 113.176 620.623 110.232C620.623 107.757 621.263 105.325 622.543 102.936C623.866 100.504 626.042 98.328 629.071 96.408C632.1 94.4453 636.132 92.824 641.167 91.544C646.202 90.264 652.452 89.5387 659.919 89.368V85.528C659.919 81.1333 658.98 77.8907 657.103 75.8C655.268 73.6667 652.58 72.6 649.039 72.6C646.479 72.6 644.346 72.8987 642.639 73.496C640.932 74.0933 639.439 74.776 638.159 75.544C636.922 76.2693 635.77 76.9307 634.703 77.528C633.636 78.1253 632.463 78.424 631.183 78.424C630.116 78.424 629.199 78.1467 628.431 77.592C627.663 77.0373 627.044 76.3547 626.575 75.544L623.695 70.488C631.247 63.576 640.356 60.12 651.023 60.12C654.863 60.12 658.276 60.76 661.263 62.04C664.292 63.2773 666.852 65.0267 668.943 67.288C671.034 69.5067 672.612 72.1733 673.679 75.288C674.788 78.4027 675.343 81.816 675.343 85.528V127ZM644.623 117.144C646.244 117.144 647.738 116.995 649.103 116.696C650.468 116.397 651.748 115.949 652.943 115.352C654.18 114.755 655.354 114.029 656.463 113.176C657.615 112.28 658.767 111.235 659.919 110.04V98.968C655.311 99.1813 651.45 99.5867 648.335 100.184C645.263 100.739 642.788 101.464 640.911 102.36C639.034 103.256 637.69 104.301 636.879 105.496C636.111 106.691 635.727 107.992 635.727 109.4C635.727 112.173 636.538 114.157 638.159 115.352C639.823 116.547 641.978 117.144 644.623 117.144ZM687.047 127V61.336H696.327C697.948 61.336 699.079 61.6347 699.719 62.232C700.359 62.8293 700.786 63.8533 700.999 65.304L701.959 73.24C704.306 69.1867 707.058 65.9867 710.215 63.64C713.372 61.2933 716.914 60.12 720.839 60.12C724.082 60.12 726.77 60.8667 728.903 62.36L726.855 74.2C726.727 74.968 726.45 75.5227 726.023 75.864C725.596 76.1627 725.02 76.312 724.295 76.312C723.655 76.312 722.78 76.1627 721.671 75.864C720.562 75.5653 719.09 75.416 717.255 75.416C713.97 75.416 711.154 76.3333 708.807 78.168C706.46 79.96 704.476 82.6053 702.855 86.104V127H687.047ZM781.665 127C779.617 127 778.273 126.04 777.633 124.12L776.353 117.784C774.988 119.32 773.558 120.707 772.065 121.944C770.572 123.181 768.95 124.248 767.201 125.144C765.494 126.04 763.638 126.723 761.633 127.192C759.67 127.704 757.537 127.96 755.233 127.96C751.649 127.96 748.364 127.213 745.377 125.72C742.39 124.227 739.809 122.072 737.633 119.256C735.5 116.397 733.836 112.877 732.641 108.696C731.489 104.515 730.913 99.736 730.913 94.36C730.913 89.496 731.574 84.9733 732.897 80.792C734.22 76.6107 736.118 72.984 738.593 69.912C741.068 66.84 744.033 64.4507 747.489 62.744C750.945 60.9947 754.828 60.12 759.137 60.12C762.806 60.12 765.942 60.7173 768.545 61.912C771.148 63.064 773.473 64.6213 775.521 66.584V31.896H791.329V127H781.665ZM760.609 115.416C763.894 115.416 766.689 114.733 768.993 113.368C771.297 112.003 773.473 110.061 775.521 107.544V78.104C773.729 75.928 771.766 74.392 769.633 73.496C767.542 72.6 765.281 72.152 762.849 72.152C760.46 72.152 758.284 72.6 756.321 73.496C754.401 74.392 752.758 75.7573 751.393 77.592C750.07 79.384 749.046 81.688 748.321 84.504C747.596 87.2773 747.233 90.5627 747.233 94.36C747.233 98.2 747.532 101.464 748.129 104.152C748.769 106.797 749.665 108.973 750.817 110.68C751.969 112.344 753.377 113.56 755.041 114.328C756.705 115.053 758.561 115.416 760.609 115.416Z" fill="#FAFAFA"/>
</svg>
