<svg width="16" height="16" viewBox="0 0 16 16" fill="none" xmlns="http://www.w3.org/2000/svg">
<g clip-path="url(#clip0_123_207)">
<path d="M16 8.18371C16 7.63989 15.9551 7.09313 15.8591 6.55814H8.16048V9.63879H12.5691C12.3862 10.6324 11.7983 11.5113 10.9376 12.0698V14.0687H13.5678C15.1123 12.6754 16 10.6177 16 8.18371Z" fill="#4285F4"/>
<path d="M8.16044 16C10.3617 16 12.2182 15.2916 13.5707 14.0687L10.9406 12.0698C10.2088 12.5578 9.26409 12.8341 8.16343 12.8341C6.0341 12.8341 4.22866 11.4261 3.58087 9.53299H0.866714V11.5936C2.25228 14.2951 5.0744 16 8.16044 16Z" fill="#34A853"/>
<path d="M3.57796 9.53298C3.23607 8.53941 3.23607 7.46353 3.57796 6.46996V4.40933H0.86681C-0.290829 6.66985 -0.290829 9.33309 0.86681 11.5936L3.57796 9.53298Z" fill="#FBBC04"/>
<path d="M8.16044 3.16589C9.32407 3.14825 10.4487 3.57743 11.2915 4.36523L13.6217 2.0812C12.1462 0.723121 10.1878 -0.0235266 8.16044 -1.02057e-05C5.0744 -1.02057e-05 2.25228 1.70493 0.866714 4.40932L3.57787 6.46995C4.22267 4.57394 6.0311 3.16589 8.16044 3.16589Z" fill="#EA4335"/>
</g>
<defs>
<clipPath id="clip0_123_207">
<rect width="16" height="16" fill="white"/>
</clipPath>
</defs>
</svg>
