<svg width="16" height="16" viewBox="0 0 16 16" xmlns="http://www.w3.org/2000/svg">
<path d="M7.99982 2.18182V0L5.09073 2.90909L7.99982 5.81818V3.63636C10.4071 3.63636 12.3635 5.59273 12.3635 8C12.3635 8.73455 12.1816 9.43273 11.8544 10.0364L12.9162 11.0982C13.4835 10.2036 13.818 9.14182 13.818 8C13.818 4.78545 11.2144 2.18182 7.99982 2.18182ZM7.99982 12.3636C5.59255 12.3636 3.63619 10.4073 3.63619 8C3.63619 7.26545 3.818 6.56727 4.14528 5.96364L3.08346 4.90182C2.51619 5.79636 2.18164 6.85818 2.18164 8C2.18164 11.2145 4.78528 13.8182 7.99982 13.8182V16L10.9089 13.0909L7.99982 10.1818V12.3636Z"/>
</svg>
