<svg width="16" height="16" viewBox="0 0 16 16" xmlns="http://www.w3.org/2000/svg">
<path fill-rule="evenodd" clip-rule="evenodd" d="M0 10.5557V1.27C0 0.71772 0.447715 0.270004 1 0.270004H15C15.5523 0.270004 16 0.717721 16 1.27001V5.98429H10.5714C9.46686 5.98429 8.57143 6.87972 8.57143 7.98429V10.5557H0ZM0 11.6986V11.8414C0 12.3937 0.447715 12.8414 1 12.8414H7.42857V14.5557H5.14286V15.6986H8.57143V11.6986H0ZM9.71429 14.1986V8.62715C9.71429 7.79872 10.3859 7.12715 11.2143 7.12715H13.9286C14.757 7.12715 15.4286 7.79872 15.4286 8.62715V14.1986C15.4286 15.027 14.757 15.6986 13.9286 15.6986H11.2143C10.3859 15.6986 9.71429 15.027 9.71429 14.1986ZM13.1429 13.7557C13.1429 14.0713 12.887 14.3272 12.5714 14.3272C12.2558 14.3272 12 14.0713 12 13.7557C12 13.4401 12.2558 13.1843 12.5714 13.1843C12.887 13.1843 13.1429 13.4401 13.1429 13.7557Z"/>
</svg>
