<svg width="16" height="16" viewBox="0 0 16 16" xmlns="http://www.w3.org/2000/svg">
<path d="M14.0551 1.88376C13.8801 1.3675 13.3901 1 12.8126 1H3.18752C2.61001 1 2.12876 1.3675 1.94501 1.88376L0.125 7.12504V14.1251C0.125 14.6063 0.518752 15.0001 1.00001 15.0001H1.87501C2.35626 15.0001 2.75002 14.6063 2.75002 14.1251V13.2501H13.2501V14.1251C13.2501 14.6063 13.6438 15.0001 14.1251 15.0001H15.0001C15.4813 15.0001 15.8751 14.6063 15.8751 14.1251V7.12504L14.0551 1.88376ZM3.18752 10.6251C2.46126 10.6251 1.87501 10.0388 1.87501 9.31255C1.87501 8.58629 2.46126 8.00004 3.18752 8.00004C3.91377 8.00004 4.50003 8.58629 4.50003 9.31255C4.50003 10.0388 3.91377 10.6251 3.18752 10.6251ZM12.8126 10.6251C12.0863 10.6251 11.5001 10.0388 11.5001 9.31255C11.5001 8.58629 12.0863 8.00004 12.8126 8.00004C13.5388 8.00004 14.1251 8.58629 14.1251 9.31255C14.1251 10.0388 13.5388 10.6251 12.8126 10.6251ZM1.87501 6.25003L3.18752 2.31251H12.8126L14.1251 6.25003H1.87501Z"/>
</svg>
