<svg width="16" height="16" viewBox="0 0 16 16" xmlns="http://www.w3.org/2000/svg">
<path fill-rule="evenodd" clip-rule="evenodd" d="M11.3965 8.64014C12.3929 9.3165 13.091 10.2329 13.091 11.4547V13.6365H16.0001V11.4547C16.0001 9.86923 13.4038 8.93105 11.3965 8.64014Z"/>
<path d="M5.81828 7.8182C7.42493 7.8182 8.72738 6.51575 8.72738 4.9091C8.72738 3.30245 7.42493 2 5.81828 2C4.21163 2 2.90918 3.30245 2.90918 4.9091C2.90918 6.51575 4.21163 7.8182 5.81828 7.8182Z"/>
<path fill-rule="evenodd" clip-rule="evenodd" d="M10.1821 7.8182C11.7894 7.8182 13.0912 6.51638 13.0912 4.9091C13.0912 3.30182 11.7894 2 10.1821 2C9.8403 2 9.5203 2.07273 9.21484 2.17455C9.81848 2.92364 10.1821 3.87637 10.1821 4.9091C10.1821 5.94183 9.81848 6.89456 9.21484 7.64366C9.5203 7.74548 9.8403 7.8182 10.1821 7.8182Z"/>
<path fill-rule="evenodd" clip-rule="evenodd" d="M5.8182 8.54541C3.87638 8.54541 0 9.51996 0 11.4545V13.6363H11.6364V11.4545C11.6364 9.51996 7.76003 8.54541 5.8182 8.54541Z"/>
</svg>
