<svg width="16" height="16" viewBox="0 0 16 16" xmlns="http://www.w3.org/2000/svg">
<rect y="6" width="2" height="10" rx="0.5"/>
<rect x="3" y="6" width="2" height="10" rx="0.5"/>
<rect x="6" y="6" width="2" height="10" rx="0.5"/>
<rect x="9" y="6" width="2" height="10" rx="0.5"/>
<rect x="12" y="6" width="2" height="10" rx="0.5"/>
<rect x="15" y="7" width="1" height="3" rx="0.5"/>
<path fill-rule="evenodd" clip-rule="evenodd" d="M2.64317 0L3.14317 0.721908C3.59344 1.37201 3.59344 2.18417 3.14317 2.83428C2.97792 3.07287 2.97792 3.37094 3.14317 3.60954L3.64317 4.33145L2.35693 5L1.85693 4.27809C1.40667 3.62799 1.40667 2.81583 1.85693 2.16572C2.02219 1.92713 2.02219 1.62906 1.85693 1.39046L1.35693 0.668553L2.64317 0Z"/>
<path fill-rule="evenodd" clip-rule="evenodd" d="M6.64317 0L7.14317 0.721908C7.59344 1.37201 7.59344 2.18417 7.14317 2.83428C6.97792 3.07287 6.97792 3.37094 7.14317 3.60954L7.64317 4.33145L6.35693 5L5.85693 4.27809C5.40667 3.62799 5.40667 2.81583 5.85693 2.16572C6.02219 1.92713 6.02219 1.62906 5.85693 1.39046L5.35693 0.668553L6.64317 0Z"/>
<path fill-rule="evenodd" clip-rule="evenodd" d="M10.6432 0L11.1432 0.721908C11.5934 1.37201 11.5934 2.18417 11.1432 2.83428C10.9779 3.07287 10.9779 3.37094 11.1432 3.60954L11.6432 4.33145L10.3569 5L9.85693 4.27809C9.40667 3.62799 9.40667 2.81583 9.85693 2.16572C10.0222 1.92713 10.0222 1.62906 9.85693 1.39046L9.35693 0.668553L10.6432 0Z"/>
</svg>
