<svg width="16" height="16" viewBox="0 0 16 16" xmlns="http://www.w3.org/2000/svg">
  <path fill-rule="evenodd" clip-rule="evenodd" d="M16 5.76C16 8.94116 13.4212 11.52 10.24 11.52C9.65807 11.52 9.0963 11.4337 8.56679 11.2732L7.68 12.16H5.12V14.08H3.2V16H0V12.8L4.89332 7.90668C4.62671 7.24327 4.48 6.51877 4.48 5.76C4.48 2.57884 7.05884 0 10.24 0C13.4212 0 16 2.57884 16 5.76ZM11.84 5.76C12.7237 5.76 13.44 5.04366 13.44 4.16C13.44 3.27634 12.7237 2.56 11.84 2.56C10.9563 2.56 10.24 3.27634 10.24 4.16C10.24 5.04366 10.9563 5.76 11.84 5.76Z"/>
</svg>
