<svg width="16" height="16" viewBox="0 0 16 16" xmlns="http://www.w3.org/2000/svg">
<circle cx="3.5" cy="2" r="1.5" transform="rotate(90 3.5 2)"/>
<circle cx="7.5" cy="2" r="1.5" transform="rotate(90 7.5 2)"/>
<circle cx="11.5" cy="2" r="1.5" transform="rotate(90 11.5 2)"/>
<circle cx="3.5" cy="6" r="1.5" transform="rotate(90 3.5 6)"/>
<circle cx="7.5" cy="6" r="1.5" transform="rotate(90 7.5 6)"/>
<circle cx="11.5" cy="6" r="1.5" transform="rotate(90 11.5 6)"/>
<circle cx="3.5" cy="10" r="1.5" transform="rotate(90 3.5 10)"/>
<circle cx="7.5" cy="10" r="1.5" transform="rotate(90 7.5 10)"/>
<circle cx="11.5" cy="10" r="1.5" transform="rotate(90 11.5 10)"/>
<circle cx="7.5" cy="14" r="1.5" transform="rotate(90 7.5 14)"/>
</svg>
