<svg width="16" height="16" viewBox="0 0 16 16" xmlns="http://www.w3.org/2000/svg">
<g clip-path="url(#clip0)">
<path d="M1.2973 6.68919C0.579459 6.68919 0 7.26865 0 7.98649C0 8.70432 0.579459 9.28378 1.2973 9.28378C2.01514 9.28378 2.59459 8.70432 2.59459 7.98649C2.59459 7.26865 2.01514 6.68919 1.2973 6.68919ZM1.2973 1.5C0.579459 1.5 0 2.07946 0 2.7973C0 3.51514 0.579459 4.09459 1.2973 4.09459C2.01514 4.09459 2.59459 3.51514 2.59459 2.7973C2.59459 2.07946 2.01514 1.5 1.2973 1.5ZM1.2973 11.8784C0.579459 11.8784 0 12.4665 0 13.1757C0 13.8849 0.588108 14.473 1.2973 14.473C2.00649 14.473 2.59459 13.8849 2.59459 13.1757C2.59459 12.4665 2.01514 11.8784 1.2973 11.8784ZM4.89189 14.0405H16V12.3108H4.89189V14.0405ZM4.89189 8.85135H16V7.12162H4.89189V8.85135ZM4.89189 1.93243V3.66216H16V1.93243H4.89189Z"/>
</g>
<defs>
<clipPath id="clip0">
<rect width="16" height="16"/>
</clipPath>
</defs>
</svg>
