<svg width="16" height="16" viewBox="0 0 16 16" xmlns="http://www.w3.org/2000/svg">
<path d="M15.1579 13.4714V14.3135C15.1579 15.2398 14.4 15.9977 13.4737 15.9977H1.68421C0.749474 15.9977 0 15.2398 0 14.3135V2.52405C0 1.59774 0.749474 0.839844 1.68421 0.839844H13.4737C14.4 0.839844 15.1579 1.59774 15.1579 2.52405V3.36616H7.57895C6.64421 3.36616 5.89474 4.12405 5.89474 5.05037V11.7872C5.89474 12.7135 6.64421 13.4714 7.57895 13.4714H15.1579ZM7.57895 11.7872H16V5.05037H7.57895V11.7872ZM10.9474 9.68195C10.2484 9.68195 9.68421 9.11774 9.68421 8.41879C9.68421 7.71984 10.2484 7.15563 10.9474 7.15563C11.6463 7.15563 12.2105 7.71984 12.2105 8.41879C12.2105 9.11774 11.6463 9.68195 10.9474 9.68195Z"/>
</svg>
