<svg width="16" height="16" viewBox="0 0 16 16" xmlns="http://www.w3.org/2000/svg">
<path d="M8 0C3.58333 0 0 3.58333 0 8C0 12.4167 3.58333 16 8 16C12.4167 16 16 12.4167 16 8C16 3.58333 12.4167 0 8 0ZM4.90857 9.43976C4.75755 9.65544 4.45137 9.64881 4.26549 9.46232V9.46232C4.09157 9.28783 4.0823 9.01375 4.20126 8.798C4.49607 8.26329 4.50956 7.7154 4.20578 7.16188C4.08702 6.9455 4.09618 6.67067 4.27083 6.49625V6.49625C4.44794 6.31938 4.73565 6.30478 4.88234 6.50761C5.41774 7.24786 5.56167 8.50702 4.90857 9.43976ZM6.58156 10.7728C6.41761 10.971 6.12064 10.9662 5.93994 10.783V10.783C5.7616 10.6023 5.76256 10.3142 5.91517 10.1112C6.369 9.5077 6.61283 8.79504 6.62708 7.98875C6.64144 7.1766 6.38462 6.46739 5.92459 5.8505C5.77614 5.65142 5.78022 5.37009 5.9568 5.19547V5.19547C6.13461 5.01965 6.42253 5.01589 6.5817 5.20876C7.81983 6.70898 7.94104 9.12858 6.58156 10.7728ZM8.29793 12.1473C8.12891 12.3398 7.8337 12.3386 7.65182 12.1581V12.1581C7.47031 11.978 7.46879 11.6866 7.63201 11.4898C8.4541 10.4983 8.88621 9.32492 8.9 7.97958C8.91387 6.6266 8.45914 5.46105 7.62649 4.44989C7.46922 4.25891 7.47222 3.97778 7.64716 3.80284V3.80284C7.82103 3.62897 8.10268 3.6219 8.26846 3.8035C10.1526 5.86754 10.5305 9.60328 8.29793 12.1473ZM10.2079 13.5769C10.0355 13.762 9.7454 13.758 9.5662 13.5795V13.5795C9.38539 13.3994 9.38425 13.1082 9.55207 12.9159C10.7647 11.5265 11.3936 9.88188 11.4067 7.99083C11.4217 6.08451 10.7702 4.44197 9.51975 3.0014C9.35903 2.81624 9.38164 2.54289 9.55875 2.37333V2.37333V2.37333C9.73124 2.2082 9.99732 2.18945 10.1609 2.36336C12.9582 5.33648 13.1407 10.4272 10.2079 13.5769Z"/>
</svg>
