<svg width="16" height="16" viewBox="0 0 16 16" xmlns="http://www.w3.org/2000/svg">
<path d="M8.00364 3.73684C10.0118 3.73684 11.6417 5.26947 11.6417 7.1579C11.6417 7.60263 11.5471 8.02 11.3797 8.41L13.5043 10.4079C14.603 9.54579 15.4688 8.43053 16 7.1579C14.7412 4.15421 11.6344 2.02632 7.99636 2.02632C6.97772 2.02632 6.00273 2.19737 5.1005 2.50526L6.67212 3.98316C7.08686 3.82579 7.5307 3.73684 8.00364 3.73684ZM0.727603 1.86895L2.38654 3.42895L2.72124 3.74368C1.51341 4.62632 0.567531 5.80316 0 7.1579C1.25875 10.1616 4.36562 12.2895 8.00364 12.2895C9.13142 12.2895 10.2083 12.0842 11.1905 11.7147L11.4961 12.0021L13.628 14L14.5521 13.1311L1.65166 1L0.727603 1.86895ZM4.75125 5.65263L5.87904 6.71316C5.84266 6.85684 5.82083 7.00737 5.82083 7.1579C5.82083 8.29368 6.79582 9.21053 8.00364 9.21053C8.16371 9.21053 8.32378 9.19 8.47658 9.15579L9.60437 10.2163C9.11687 10.4421 8.57844 10.5789 8.00364 10.5789C5.99545 10.5789 4.36562 9.04632 4.36562 7.1579C4.36562 6.61737 4.51114 6.11105 4.75125 5.65263ZM7.88722 5.11895L10.1792 7.27421L10.1937 7.16474C10.1937 6.02895 9.21874 5.11211 8.01091 5.11211L7.88722 5.11895Z"/>
</svg>
