<svg width="16" height="16" viewBox="0 0 16 16" xmlns="http://www.w3.org/2000/svg">
<g clip-path="url(#clip0)">
<path d="M5.87755 11.6245C7.04755 12.794 8.95255 12.794 10.1226 11.6245C11.2926 10.4551 11.2926 8.55098 10.1226 7.38153L5.87755 11.6245ZM13.5 0.00749648L2.5 0C1.6675 0 1 0.667187 1 1.4993L1.00005 14.5007C1.00005 15.3328 1.66755 16 2.50005 16H13.5001C14.3326 16 15.0001 15.3328 15.0001 14.5007L15 1.4993C15 0.667187 14.3325 0.00749648 13.5 0.00749648ZM5.5 1.4993C5.9125 1.4993 6.25 1.83664 6.25 2.24895C6.25 2.66125 5.9125 2.99859 5.5 2.99859C5.0875 2.99859 4.75 2.66125 4.75 2.24895C4.75 1.83664 5.0875 1.4993 5.5 1.4993ZM3.25 1.4993C3.6625 1.4993 4 1.83664 4 2.24895C4 2.66125 3.6625 2.99859 3.25 2.99859C2.8375 2.99859 2.5 2.66125 2.5 2.24895C2.5 1.83664 2.8375 1.4993 3.25 1.4993ZM8.00005 14.0009C5.51755 14.0009 3.50005 11.9844 3.50005 9.50303C3.50005 7.02169 5.51755 5.00514 8.00005 5.00514C10.4826 5.00514 12.5001 7.02169 12.5001 9.50303C12.5001 11.9844 10.4826 14.0009 8.00005 14.0009Z"/>
</g>
<defs>
<clipPath id="clip0">
<rect width="16" height="16"/>
</clipPath>
</defs>
</svg>
